<svg width="127" height="116" viewBox="0 0 127 116" fill="none" xmlns="http://www.w3.org/2000/svg">
<path d="M35.5 116C33.84 116 32.5 114.66 32.5 113V107C32.5 104.24 30.26 102 27.5 102H11.5C8.74 102 6.5 104.24 6.5 107V113C6.5 114.66 5.16 116 3.5 116C1.84 116 0.5 114.66 0.5 113V107C0.5 100.93 5.43 96 11.5 96H27.5C33.57 96 38.5 100.93 38.5 107V113C38.5 114.66 37.16 116 35.5 116Z" fill="#00C82C"/>
<path d="M19.5 90C12.33 90 6.5 84.17 6.5 77C6.5 69.83 12.33 64 19.5 64C26.67 64 32.5 69.83 32.5 77C32.5 84.17 26.67 90 19.5 90ZM19.5 70C15.64 70 12.5 73.14 12.5 77C12.5 80.86 15.64 84 19.5 84C23.36 84 26.5 80.86 26.5 77C26.5 73.14 23.36 70 19.5 70Z" fill="#00C82C"/>
<path d="M79.5 116C77.84 116 76.5 114.66 76.5 113V107C76.5 104.24 74.26 102 71.5 102H55.5C52.74 102 50.5 104.24 50.5 107V113C50.5 114.66 49.16 116 47.5 116C45.84 116 44.5 114.66 44.5 113V107C44.5 100.93 49.43 96 55.5 96H71.5C77.57 96 82.5 100.93 82.5 107V113C82.5 114.66 81.16 116 79.5 116Z" fill="#00C82C"/>
<path d="M63.5 90C56.33 90 50.5 84.17 50.5 77C50.5 69.83 56.33 64 63.5 64C70.67 64 76.5 69.83 76.5 77C76.5 84.17 70.67 90 63.5 90ZM63.5 70C59.64 70 56.5 73.14 56.5 77C56.5 80.86 59.64 84 63.5 84C67.36 84 70.5 80.86 70.5 77C70.5 73.14 67.36 70 63.5 70Z" fill="#00C82C"/>
<path d="M123.5 116C121.84 116 120.5 114.66 120.5 113V107C120.5 104.24 118.26 102 115.5 102H99.5C96.74 102 94.5 104.24 94.5 107V113C94.5 114.66 93.16 116 91.5 116C89.84 116 88.5 114.66 88.5 113V107C88.5 100.93 93.43 96 99.5 96H115.5C121.57 96 126.5 100.93 126.5 107V113C126.5 114.66 125.16 116 123.5 116Z" fill="#00C82C"/>
<path d="M107.5 90C100.33 90 94.5 84.17 94.5 77C94.5 69.83 100.33 64 107.5 64C114.67 64 120.5 69.83 120.5 77C120.5 84.17 114.67 90 107.5 90ZM107.5 70C103.64 70 100.5 73.14 100.5 77C100.5 80.86 103.64 84 107.5 84C111.36 84 114.5 80.86 114.5 77C114.5 73.14 111.36 70 107.5 70Z" fill="#00C82C"/>
<path d="M41.5 58C34.33 58 28.5 52.17 28.5 45C28.5 37.83 34.33 32 41.5 32C48.67 32 54.5 37.83 54.5 45C54.5 52.17 48.67 58 41.5 58ZM41.5 38C37.64 38 34.5 41.14 34.5 45C34.5 48.86 37.64 52 41.5 52C45.36 52 48.5 48.86 48.5 45C48.5 41.14 45.36 38 41.5 38Z" fill="#00C82C"/>
<path d="M85.5 58C78.33 58 72.5 52.17 72.5 45C72.5 37.83 78.33 32 85.5 32C92.67 32 98.5 37.83 98.5 45C98.5 52.17 92.67 58 85.5 58ZM85.5 38C81.64 38 78.5 41.14 78.5 45C78.5 48.86 81.64 52 85.5 52C89.36 52 92.5 48.86 92.5 45C92.5 41.14 89.36 38 85.5 38Z" fill="#00C82C"/>
<path d="M63.5 26C56.33 26 50.5 20.17 50.5 13C50.5 5.83 56.33 0 63.5 0C70.67 0 76.5 5.83 76.5 13C76.5 20.17 70.67 26 63.5 26ZM63.5 6C59.64 6 56.5 9.14 56.5 13C56.5 16.86 59.64 20 63.5 20C67.36 20 70.5 16.86 70.5 13C70.5 9.14 67.36 6 63.5 6Z" fill="#00C82C"/>
</svg>
