<svg width="122" height="122" viewBox="0 0 122 122" fill="none" xmlns="http://www.w3.org/2000/svg">
<path d="M61 119C93.0325 119 119 93.0325 119 61C119 28.9675 93.0325 3 61 3C28.9675 3 3 28.9675 3 61C3 93.0325 28.9675 119 61 119Z" stroke="#00C82C" stroke-width="5" stroke-miterlimit="10"/>
<path d="M6.32275 41.6667H115.677" stroke="#00C82C" stroke-width="5" stroke-linecap="round" stroke-linejoin="round"/>
<path d="M6.32275 80.3333H115.677" stroke="#00C82C" stroke-width="5" stroke-linecap="round" stroke-linejoin="round"/>
<path d="M61.0002 117.429C74.347 117.429 85.1668 92.1651 85.1668 61.0001C85.1668 29.8351 74.347 4.57092 61.0002 4.57092C47.6533 4.57092 36.8335 29.8351 36.8335 61.0001C36.8335 92.1651 47.6533 117.429 61.0002 117.429Z" stroke="#00C82C" stroke-width="5" stroke-miterlimit="10"/>
</svg>
