<svg width="128" height="128" viewBox="0 0 128 128" fill="none" xmlns="http://www.w3.org/2000/svg">
<path d="M36.8201 121.57C36.5101 121.57 36.1901 121.52 35.8901 121.42C20.4401 116.37 7.90007 95.77 6.22007 86.23C5.93007 84.6 7.02007 83.04 8.65007 82.75L21.9601 80.4C23.6001 80.12 25.1501 81.2 25.4401 82.83C25.7301 84.46 24.6401 86.02 23.0101 86.31L12.9201 88.09C15.8901 96.7 25.5401 110.7 36.2401 115.15C39.3601 112.63 47.1201 106.84 53.7401 105.68C57.2201 105.07 60.4701 104.57 63.6101 104.09C67.9001 103.43 71.9401 102.81 75.5901 102.03C77.2101 101.68 78.8001 102.72 79.1501 104.34C79.5001 105.96 78.4601 107.55 76.8401 107.9C73.0201 108.72 68.8901 109.35 64.5201 110.02C61.4101 110.5 58.2001 110.99 54.7801 111.59C49.2401 112.57 41.3701 118.59 38.8001 120.83C38.2401 121.31 37.5301 121.57 36.8201 121.57Z" fill="#00C82C"/>
<path d="M106.21 82.65C105.82 82.65 105.42 82.57 105.04 82.41C103.51 81.7701 102.8 80.01 103.44 78.48C106.44 71.37 107.65 64.58 108.72 58.58C109.93 51.78 111.01 45.72 114.61 41.98C111.56 39.47 106.02 35.89 99.8599 36.69C93.3099 37.54 87.3499 43.13 82.1399 53.31C81.3899 54.78 79.5799 55.37 78.0999 54.61C76.6199 53.86 76.0399 52.05 76.7999 50.57C82.9699 38.5 90.4899 31.83 99.1299 30.73C111.54 29.15 121.15 39.81 121.55 40.26C122.18 40.97 122.44 41.93 122.24 42.86C122.05 43.79 121.43 44.57 120.57 44.97C117.1 46.59 116.09 51.35 114.62 59.62C113.55 65.61 112.23 73.07 108.96 80.8C108.49 81.96 107.38 82.65 106.21 82.65Z" fill="#00C82C"/>
<path d="M46.23 91.3599C45.71 91.3599 45.19 91.2299 44.71 90.9399C40.89 88.6899 37.3 86.2299 34.06 83.6199C32.77 82.5799 32.56 80.6899 33.6 79.3999C34.64 78.1099 36.52 77.8999 37.82 78.9399C40.84 81.3599 44.19 83.6599 47.76 85.7699C49.19 86.6099 49.66 88.4499 48.82 89.8799C48.26 90.8299 47.26 91.3599 46.23 91.3599Z" fill="#00C82C"/>
<path d="M23.5001 71.4799C22.5801 71.4799 21.6801 71.0599 21.0901 70.2699C5.40006 49.1099 9.09006 28.0499 9.25006 27.1599C9.40006 26.3599 9.87006 25.6499 10.5501 25.1999C11.2301 24.7499 12.0601 24.5999 12.8601 24.7799C13.3801 24.8999 25.6901 27.6899 40.8601 32.9799C61.4001 40.1399 76.4901 48.0999 85.7301 56.6399C86.9501 57.7599 87.0201 59.6599 85.9001 60.8799C84.7801 62.0999 82.8801 62.1699 81.6601 61.0499C64.1001 44.8299 26.2401 34.3299 14.8501 31.4399C14.5401 37.7099 15.2301 52.2799 25.9101 66.6899C26.9001 68.0199 26.6201 69.8999 25.2901 70.8899C24.7501 71.2899 24.1301 71.4799 23.5001 71.4799Z" fill="#00C82C"/>
<path d="M73.7099 38.57C73.1499 38.57 72.5799 38.41 72.0799 38.08C61.2099 31.02 43.8899 23.52 37.1399 20.7C37.0199 21.16 36.8899 21.71 36.7499 22.37C36.3999 23.99 34.7999 25.02 33.1799 24.67C31.5599 24.32 30.5299 22.72 30.8899 21.1C31.9499 16.19 32.7699 14.09 35.0299 13.79C35.5399 13.72 36.0599 13.78 36.5499 13.98C37.5499 14.38 61.1899 23.85 75.3599 33.07C76.7499 33.97 77.1399 35.83 76.2399 37.22C75.6599 38.09 74.6999 38.57 73.7099 38.57Z" fill="#00C82C"/>
<path d="M123.94 91.11C119.86 87.03 113.23 87.03 109.15 91.11L106.99 93.35L104.83 91.1901C100.75 87.1101 94.1201 87.1101 90.0401 91.1901C86.8401 94.3901 86.1501 99.18 87.9801 103.06C88.4801 104.12 89.1601 105.11 90.0401 105.98L105.57 121.51C106.35 122.29 107.62 122.29 108.4 121.51L123.93 105.91C124.78 105.06 125.45 104.1 125.95 103.07C127.84 99.16 127.17 94.34 123.94 91.11Z" fill="#00C82C"/>
</svg>
