<svg width="17" height="33" viewBox="0 0 17 33" fill="none" xmlns="http://www.w3.org/2000/svg">
<mask id="path-1-inside-1_108_813" fill="white">
<path d="M9.9047 0.00494378C9.44675 0.0190682 8.99136 0.0789322 8.54535 0.183754C8.05885 0.236431 7.58606 0.37754 7.15024 0.600026C7.14855 0.602649 7.14618 0.604718 7.14337 0.606082C7.14057 0.607446 7.13745 0.608018 7.13435 0.607726C7.13124 0.607433 7.12828 0.606302 7.12578 0.604438C7.12328 0.602575 7.12134 0.600063 7.12018 0.597172C6.87745 0.361887 6.55862 0.221101 6.2212 0.20019C5.88379 0.17928 5.55001 0.279641 5.28008 0.483155C5.01015 0.686669 4.82184 0.979952 4.74913 1.31008C4.67642 1.6402 4.72409 1.98538 4.88355 2.28346C4.88504 2.28604 4.88583 2.28903 4.88583 2.29202C4.88583 2.29501 4.88504 2.29791 4.88355 2.3005C4.43157 2.79509 4.13906 3.41439 4.04414 4.07761C4.02454 4.21511 3.95884 4.34185 3.8578 4.43714C2.77683 5.45404 2.02621 6.77213 1.70322 8.22061C1.283 9.39381 0.940736 10.5935 0.678671 11.8118C0.649991 11.9473 0.635885 12.0854 0.636596 12.2239C0.638156 12.977 0.797137 13.7214 1.10334 14.4094C1.24068 14.7179 1.26723 15.0644 1.17847 15.3902C0.798027 16.7869 0.463445 18.1956 0.175265 19.6142C-0.159814 21.2636 -0.0123749 22.9746 0.59993 24.5424C1.38194 26.543 2.39899 28.4436 3.62969 30.2041C3.6939 30.296 3.73168 30.4038 3.73891 30.5157C3.74614 30.6276 3.72256 30.7393 3.67072 30.8387C3.61888 30.9381 3.54077 31.0215 3.44489 31.0796C3.349 31.1377 3.23902 31.1685 3.12688 31.1685H1.89406C1.80075 31.1685 1.70782 31.1805 1.61757 31.2042C1.29257 31.2891 1.00347 31.4762 0.79288 31.7379C0.730007 31.8161 0.688531 31.9093 0.672516 32.0084C0.656502 32.1074 0.666498 32.209 0.701524 32.303C0.736551 32.397 0.795406 32.4803 0.872325 32.5448C0.949243 32.6092 1.04159 32.6526 1.14031 32.6707C1.66045 32.7668 2.19127 32.7918 2.71815 32.7449C2.82006 32.7361 2.92022 32.713 3.01569 32.6763C3.78685 32.379 4.62257 32.2893 5.43925 32.4163C5.50728 32.574 5.61566 32.7114 5.75348 32.8138C5.8913 32.9163 6.05368 32.9805 6.22427 33.0002C8.36693 32.9236 10.5014 32.6948 12.6117 32.3157C13.4257 32.1617 14.1548 31.7144 14.6608 31.0584C14.8212 30.8505 14.9013 30.5917 14.8862 30.3295C14.8201 29.1974 15.0784 28.0699 15.6306 27.0793C15.9019 26.5932 16.0581 26.0513 16.0874 25.4953C16.1719 23.8992 15.9143 22.3034 15.3319 20.8148C14.7364 19.2923 14.524 17.6469 14.7134 16.023C14.8885 14.5172 14.846 12.9941 14.5871 11.5004C14.1212 9.99099 13.6259 8.49081 13.1016 7.00069C13.0566 6.87386 13.0546 6.73578 13.0959 6.60769C13.1371 6.4796 13.2194 6.36865 13.33 6.29194C14.3163 5.61301 15.0815 4.6595 15.5308 3.54966C15.6053 3.36574 15.6281 3.16495 15.5968 2.96902C15.5656 2.7731 15.4815 2.58944 15.3535 2.43778C14.6861 1.647 13.8486 1.01728 12.9035 0.595701C11.9585 0.174126 10.9303 -0.0284432 9.89599 0.00321364L9.9047 0.00494378ZM9.93475 0.481166C10.8968 0.452069 11.853 0.640661 12.7319 1.03291C13.6109 1.42516 14.3898 2.01096 15.0106 2.74644C15.083 2.83154 15.1308 2.93477 15.1489 3.04506C15.1669 3.15535 15.1544 3.26852 15.1128 3.37223C14.6988 4.3953 13.9937 5.27432 13.0847 5.90041C12.8874 6.03616 12.7403 6.23311 12.6661 6.4608C12.5919 6.68849 12.5948 6.93429 12.6742 7.16021C13.1931 8.63488 13.6835 10.1194 14.145 11.613C14.3914 13.052 14.4309 14.5188 14.2622 15.9689C14.2404 16.1511 14.2234 16.3339 14.2112 16.517C14.0029 17.239 13.615 17.8965 13.0838 18.4281C12.9887 18.523 12.8707 18.5918 12.7413 18.6279C12.6118 18.6641 12.4752 18.6664 12.3447 18.6345C12.2141 18.6027 12.0939 18.5378 11.9957 18.4461C11.8974 18.3544 11.8244 18.239 11.7837 18.1109C11.0293 15.7336 11.0042 13.185 11.7116 10.7933C11.725 10.7342 11.7155 10.6722 11.6848 10.6199C11.6542 10.5676 11.6048 10.5289 11.5467 10.5117C11.4886 10.4945 11.4261 10.5 11.3719 10.5272C11.3177 10.5544 11.2759 10.6012 11.255 10.6581C10.5208 13.1411 10.5469 15.787 11.3302 18.255C11.3956 18.4614 11.5131 18.6475 11.6713 18.7953C11.8296 18.9432 12.0232 19.0477 12.2336 19.099C12.444 19.1502 12.6641 19.1464 12.8726 19.0879C13.0811 19.0294 13.271 18.9182 13.424 18.765C13.7293 18.4598 13.9932 18.1158 14.2088 17.7419C14.2684 18.8551 14.5056 19.9516 14.9114 20.9899C15.4692 22.4152 15.7159 23.9432 15.6351 25.4715C15.6093 25.9547 15.4732 26.4256 15.2372 26.848C14.6402 27.9177 14.3606 29.1354 14.4315 30.3583C14.44 30.5056 14.3952 30.651 14.3052 30.7679C13.871 31.331 13.2453 31.7151 12.5468 31.8477C10.4592 32.2227 8.34774 32.449 6.22817 32.5249C6.18833 32.5269 6.14849 32.521 6.11092 32.5076C6.07335 32.4942 6.03879 32.4735 6.00922 32.4468C5.97964 32.42 5.95563 32.3877 5.93856 32.3516C5.92148 32.3156 5.91167 32.2766 5.9097 32.2367C5.90773 32.1969 5.91362 32.157 5.92705 32.1194C5.94048 32.0819 5.96117 32.0473 5.98796 32.0178C6.01474 31.9882 6.04709 31.9642 6.08315 31.9472C6.11921 31.9301 6.15827 31.9203 6.19811 31.9184C7.0199 31.9071 7.83461 31.7646 8.61146 31.4964C8.94891 31.312 9.32337 31.2054 9.70737 31.1845C10.0914 31.1637 10.4752 31.2289 10.8307 31.3756C10.8883 31.3954 10.9513 31.3925 11.0067 31.3673C11.0622 31.3422 11.106 31.2968 11.129 31.2404C11.1521 31.1841 11.1527 31.1209 11.1308 31.0641C11.1088 31.0073 11.066 30.961 11.011 30.9348C10.5965 30.7638 10.1494 30.6862 9.70149 30.7075C9.25358 30.7287 8.81586 30.8483 8.41942 31.0578C7.70135 31.3016 6.94945 31.4312 6.1912 31.4416C6.03842 31.4544 5.89169 31.5071 5.76576 31.5945C5.63982 31.6819 5.53913 31.8009 5.47381 31.9396C4.58856 31.8099 3.68483 31.911 2.85008 32.2329C2.79706 32.2536 2.74143 32.2667 2.68478 32.272C2.20064 32.3151 1.71288 32.292 1.23497 32.2034C1.21767 32.2001 1.20154 32.1923 1.18813 32.1808C1.17472 32.1694 1.1645 32.1547 1.15845 32.1382C1.1524 32.1217 1.15073 32.1038 1.15361 32.0865C1.15648 32.0691 1.1638 32.0527 1.17486 32.039C1.32158 31.8567 1.52305 31.7265 1.74949 31.6675C1.79954 31.6545 1.85105 31.6478 1.90277 31.6477H3.13589C3.33528 31.6477 3.53086 31.5931 3.70136 31.4897C3.87186 31.3864 4.01076 31.2383 4.10294 31.0615C4.19513 30.8848 4.23707 30.6861 4.22421 30.4871C4.21135 30.2882 4.14418 30.0965 4.03 29.933C2.82143 28.2034 1.82274 26.3362 1.05494 24.3708C0.475242 22.8887 0.335003 21.2711 0.651015 19.7114C0.936825 18.303 1.2687 16.9044 1.64611 15.5178C1.76387 15.0859 1.72883 14.6267 1.54693 14.2177C1.26792 13.5903 1.12317 12.9115 1.12196 12.2249C1.12188 12.1204 1.13296 12.0164 1.15502 11.9143C1.41445 10.7067 1.75401 9.51763 2.17146 8.35513C2.46999 6.98886 3.17487 5.74486 4.1935 4.78654C4.37348 4.61736 4.49068 4.39208 4.5259 4.1476C4.60731 3.57927 4.85803 3.0486 5.2454 2.62481C5.31452 2.5495 5.35858 2.45459 5.3715 2.35318C5.38442 2.25177 5.36556 2.14886 5.31753 2.05862C5.21212 1.86096 5.18074 1.63219 5.22904 1.41345C5.27734 1.19471 5.40214 1.00043 5.58097 0.865517C5.75981 0.730606 5.98094 0.663918 6.20455 0.677537C6.42816 0.691156 6.63956 0.784122 6.8007 0.93974C6.87469 1.01127 6.96916 1.05798 7.07094 1.07322C7.17272 1.08847 7.27672 1.07149 7.36842 1.02478C7.76121 0.824277 8.18797 0.698919 8.62679 0.655045C9.05219 0.552955 9.48695 0.494771 9.92423 0.481512L9.93475 0.481166Z"/>
</mask>
<path d="M9.9047 0.00494378C9.44675 0.0190682 8.99136 0.0789322 8.54535 0.183754C8.05885 0.236431 7.58606 0.37754 7.15024 0.600026C7.14855 0.602649 7.14618 0.604718 7.14337 0.606082C7.14057 0.607446 7.13745 0.608018 7.13435 0.607726C7.13124 0.607433 7.12828 0.606302 7.12578 0.604438C7.12328 0.602575 7.12134 0.600063 7.12018 0.597172C6.87745 0.361887 6.55862 0.221101 6.2212 0.20019C5.88379 0.17928 5.55001 0.279641 5.28008 0.483155C5.01015 0.686669 4.82184 0.979952 4.74913 1.31008C4.67642 1.6402 4.72409 1.98538 4.88355 2.28346C4.88504 2.28604 4.88583 2.28903 4.88583 2.29202C4.88583 2.29501 4.88504 2.29791 4.88355 2.3005C4.43157 2.79509 4.13906 3.41439 4.04414 4.07761C4.02454 4.21511 3.95884 4.34185 3.8578 4.43714C2.77683 5.45404 2.02621 6.77213 1.70322 8.22061C1.283 9.39381 0.940736 10.5935 0.678671 11.8118C0.649991 11.9473 0.635885 12.0854 0.636596 12.2239C0.638156 12.977 0.797137 13.7214 1.10334 14.4094C1.24068 14.7179 1.26723 15.0644 1.17847 15.3902C0.798027 16.7869 0.463445 18.1956 0.175265 19.6142C-0.159814 21.2636 -0.0123749 22.9746 0.59993 24.5424C1.38194 26.543 2.39899 28.4436 3.62969 30.2041C3.6939 30.296 3.73168 30.4038 3.73891 30.5157C3.74614 30.6276 3.72256 30.7393 3.67072 30.8387C3.61888 30.9381 3.54077 31.0215 3.44489 31.0796C3.349 31.1377 3.23902 31.1685 3.12688 31.1685H1.89406C1.80075 31.1685 1.70782 31.1805 1.61757 31.2042C1.29257 31.2891 1.00347 31.4762 0.79288 31.7379C0.730007 31.8161 0.688531 31.9093 0.672516 32.0084C0.656502 32.1074 0.666498 32.209 0.701524 32.303C0.736551 32.397 0.795406 32.4803 0.872325 32.5448C0.949243 32.6092 1.04159 32.6526 1.14031 32.6707C1.66045 32.7668 2.19127 32.7918 2.71815 32.7449C2.82006 32.7361 2.92022 32.713 3.01569 32.6763C3.78685 32.379 4.62257 32.2893 5.43925 32.4163C5.50728 32.574 5.61566 32.7114 5.75348 32.8138C5.8913 32.9163 6.05368 32.9805 6.22427 33.0002C8.36693 32.9236 10.5014 32.6948 12.6117 32.3157C13.4257 32.1617 14.1548 31.7144 14.6608 31.0584C14.8212 30.8505 14.9013 30.5917 14.8862 30.3295C14.8201 29.1974 15.0784 28.0699 15.6306 27.0793C15.9019 26.5932 16.0581 26.0513 16.0874 25.4953C16.1719 23.8992 15.9143 22.3034 15.3319 20.8148C14.7364 19.2923 14.524 17.6469 14.7134 16.023C14.8885 14.5172 14.846 12.9941 14.5871 11.5004C14.1212 9.99099 13.6259 8.49081 13.1016 7.00069C13.0566 6.87386 13.0546 6.73578 13.0959 6.60769C13.1371 6.4796 13.2194 6.36865 13.33 6.29194C14.3163 5.61301 15.0815 4.6595 15.5308 3.54966C15.6053 3.36574 15.6281 3.16495 15.5968 2.96902C15.5656 2.7731 15.4815 2.58944 15.3535 2.43778C14.6861 1.647 13.8486 1.01728 12.9035 0.595701C11.9585 0.174126 10.9303 -0.0284432 9.89599 0.00321364L9.9047 0.00494378ZM9.93475 0.481166C10.8968 0.452069 11.853 0.640661 12.7319 1.03291C13.6109 1.42516 14.3898 2.01096 15.0106 2.74644C15.083 2.83154 15.1308 2.93477 15.1489 3.04506C15.1669 3.15535 15.1544 3.26852 15.1128 3.37223C14.6988 4.3953 13.9937 5.27432 13.0847 5.90041C12.8874 6.03616 12.7403 6.23311 12.6661 6.4608C12.5919 6.68849 12.5948 6.93429 12.6742 7.16021C13.1931 8.63488 13.6835 10.1194 14.145 11.613C14.3914 13.052 14.4309 14.5188 14.2622 15.9689C14.2404 16.1511 14.2234 16.3339 14.2112 16.517C14.0029 17.239 13.615 17.8965 13.0838 18.4281C12.9887 18.523 12.8707 18.5918 12.7413 18.6279C12.6118 18.6641 12.4752 18.6664 12.3447 18.6345C12.2141 18.6027 12.0939 18.5378 11.9957 18.4461C11.8974 18.3544 11.8244 18.239 11.7837 18.1109C11.0293 15.7336 11.0042 13.185 11.7116 10.7933C11.725 10.7342 11.7155 10.6722 11.6848 10.6199C11.6542 10.5676 11.6048 10.5289 11.5467 10.5117C11.4886 10.4945 11.4261 10.5 11.3719 10.5272C11.3177 10.5544 11.2759 10.6012 11.255 10.6581C10.5208 13.1411 10.5469 15.787 11.3302 18.255C11.3956 18.4614 11.5131 18.6475 11.6713 18.7953C11.8296 18.9432 12.0232 19.0477 12.2336 19.099C12.444 19.1502 12.6641 19.1464 12.8726 19.0879C13.0811 19.0294 13.271 18.9182 13.424 18.765C13.7293 18.4598 13.9932 18.1158 14.2088 17.7419C14.2684 18.8551 14.5056 19.9516 14.9114 20.9899C15.4692 22.4152 15.7159 23.9432 15.6351 25.4715C15.6093 25.9547 15.4732 26.4256 15.2372 26.848C14.6402 27.9177 14.3606 29.1354 14.4315 30.3583C14.44 30.5056 14.3952 30.651 14.3052 30.7679C13.871 31.331 13.2453 31.7151 12.5468 31.8477C10.4592 32.2227 8.34774 32.449 6.22817 32.5249C6.18833 32.5269 6.14849 32.521 6.11092 32.5076C6.07335 32.4942 6.03879 32.4735 6.00922 32.4468C5.97964 32.42 5.95563 32.3877 5.93856 32.3516C5.92148 32.3156 5.91167 32.2766 5.9097 32.2367C5.90773 32.1969 5.91362 32.157 5.92705 32.1194C5.94048 32.0819 5.96117 32.0473 5.98796 32.0178C6.01474 31.9882 6.04709 31.9642 6.08315 31.9472C6.11921 31.9301 6.15827 31.9203 6.19811 31.9184C7.0199 31.9071 7.83461 31.7646 8.61146 31.4964C8.94891 31.312 9.32337 31.2054 9.70737 31.1845C10.0914 31.1637 10.4752 31.2289 10.8307 31.3756C10.8883 31.3954 10.9513 31.3925 11.0067 31.3673C11.0622 31.3422 11.106 31.2968 11.129 31.2404C11.1521 31.1841 11.1527 31.1209 11.1308 31.0641C11.1088 31.0073 11.066 30.961 11.011 30.9348C10.5965 30.7638 10.1494 30.6862 9.70149 30.7075C9.25358 30.7287 8.81586 30.8483 8.41942 31.0578C7.70135 31.3016 6.94945 31.4312 6.1912 31.4416C6.03842 31.4544 5.89169 31.5071 5.76576 31.5945C5.63982 31.6819 5.53913 31.8009 5.47381 31.9396C4.58856 31.8099 3.68483 31.911 2.85008 32.2329C2.79706 32.2536 2.74143 32.2667 2.68478 32.272C2.20064 32.3151 1.71288 32.292 1.23497 32.2034C1.21767 32.2001 1.20154 32.1923 1.18813 32.1808C1.17472 32.1694 1.1645 32.1547 1.15845 32.1382C1.1524 32.1217 1.15073 32.1038 1.15361 32.0865C1.15648 32.0691 1.1638 32.0527 1.17486 32.039C1.32158 31.8567 1.52305 31.7265 1.74949 31.6675C1.79954 31.6545 1.85105 31.6478 1.90277 31.6477H3.13589C3.33528 31.6477 3.53086 31.5931 3.70136 31.4897C3.87186 31.3864 4.01076 31.2383 4.10294 31.0615C4.19513 30.8848 4.23707 30.6861 4.22421 30.4871C4.21135 30.2882 4.14418 30.0965 4.03 29.933C2.82143 28.2034 1.82274 26.3362 1.05494 24.3708C0.475242 22.8887 0.335003 21.2711 0.651015 19.7114C0.936825 18.303 1.2687 16.9044 1.64611 15.5178C1.76387 15.0859 1.72883 14.6267 1.54693 14.2177C1.26792 13.5903 1.12317 12.9115 1.12196 12.2249C1.12188 12.1204 1.13296 12.0164 1.15502 11.9143C1.41445 10.7067 1.75401 9.51763 2.17146 8.35513C2.46999 6.98886 3.17487 5.74486 4.1935 4.78654C4.37348 4.61736 4.49068 4.39208 4.5259 4.1476C4.60731 3.57927 4.85803 3.0486 5.2454 2.62481C5.31452 2.5495 5.35858 2.45459 5.3715 2.35318C5.38442 2.25177 5.36556 2.14886 5.31753 2.05862C5.21212 1.86096 5.18074 1.63219 5.22904 1.41345C5.27734 1.19471 5.40214 1.00043 5.58097 0.865517C5.75981 0.730606 5.98094 0.663918 6.20455 0.677537C6.42816 0.691156 6.63956 0.784122 6.8007 0.93974C6.87469 1.01127 6.96916 1.05798 7.07094 1.07322C7.17272 1.08847 7.27672 1.07149 7.36842 1.02478C7.76121 0.824277 8.18797 0.698919 8.62679 0.655045C9.05219 0.552955 9.48695 0.494771 9.92423 0.481512L9.93475 0.481166Z" fill="#0CFF42" stroke="#0CFF42" stroke-width="4" mask="url(#path-1-inside-1_108_813)"/>
<mask id="path-2-inside-2_108_813" fill="white">
<path d="M11.0449 2.05639C11.0456 1.99559 11.0342 1.93523 11.0114 1.87886C10.9886 1.8225 10.9548 1.77122 10.9121 1.72798C10.8693 1.68475 10.8184 1.65045 10.7623 1.62702C10.7062 1.6036 10.646 1.59155 10.5852 1.59155C10.5244 1.59155 10.4642 1.6036 10.4081 1.62702C10.352 1.65045 10.3011 1.68475 10.2583 1.72798C10.2156 1.77122 10.1818 1.8225 10.159 1.87886C10.1362 1.93523 10.1248 1.99559 10.1255 2.05639C10.1248 2.11719 10.1362 2.17755 10.159 2.23392C10.1818 2.29028 10.2156 2.34157 10.2583 2.3848C10.3011 2.42803 10.352 2.46233 10.4081 2.48576C10.4642 2.50918 10.5244 2.52123 10.5852 2.52123C10.646 2.52123 10.7062 2.50918 10.7623 2.48576C10.8184 2.46233 10.8693 2.42803 10.9121 2.3848C10.9548 2.34157 10.9886 2.29028 11.0114 2.23392C11.0342 2.17755 11.0456 2.11719 11.0449 2.05639Z"/>
</mask>
<path d="M11.0449 2.05639C11.0456 1.99559 11.0342 1.93523 11.0114 1.87886C10.9886 1.8225 10.9548 1.77122 10.9121 1.72798C10.8693 1.68475 10.8184 1.65045 10.7623 1.62702C10.7062 1.6036 10.646 1.59155 10.5852 1.59155C10.5244 1.59155 10.4642 1.6036 10.4081 1.62702C10.352 1.65045 10.3011 1.68475 10.2583 1.72798C10.2156 1.77122 10.1818 1.8225 10.159 1.87886C10.1362 1.93523 10.1248 1.99559 10.1255 2.05639C10.1248 2.11719 10.1362 2.17755 10.159 2.23392C10.1818 2.29028 10.2156 2.34157 10.2583 2.3848C10.3011 2.42803 10.352 2.46233 10.4081 2.48576C10.4642 2.50918 10.5244 2.52123 10.5852 2.52123C10.646 2.52123 10.7062 2.50918 10.7623 2.48576C10.8184 2.46233 10.8693 2.42803 10.9121 2.3848C10.9548 2.34157 10.9886 2.29028 11.0114 2.23392C11.0342 2.17755 11.0456 2.11719 11.0449 2.05639Z" fill="#0CFF42"/>
<path d="M11.0449 2.05639L9.045 2.03411L9.04475 2.05639L9.045 2.07867L11.0449 2.05639ZM10.1255 2.05639L12.1254 2.07867L12.1256 2.05639L12.1254 2.03411L10.1255 2.05639ZM13.0447 2.07867C13.0484 1.75351 12.9875 1.43067 12.8655 1.12896L9.15727 2.62877C9.08084 2.43978 9.04273 2.23768 9.045 2.03411L13.0447 2.07867ZM12.8655 1.12896C12.7435 0.827415 12.5629 0.553012 12.3341 0.32167L9.48999 3.1343C9.34672 2.98942 9.23364 2.81759 9.15727 2.62877L12.8655 1.12896ZM12.3341 0.32167C12.1052 0.0901634 11.8328 -0.0933715 11.5328 -0.218597L9.99179 3.47264C9.80405 3.39427 9.63343 3.27934 9.48999 3.1343L12.3341 0.32167ZM11.5328 -0.218597C11.2323 -0.344047 10.9102 -0.408447 10.5852 -0.408447V3.59155C10.3818 3.59155 10.1801 3.55125 9.99179 3.47264L11.5328 -0.218597ZM10.5852 -0.408447C10.2602 -0.408447 9.93807 -0.344047 9.63758 -0.218597L11.1786 3.47264C10.9903 3.55125 10.7886 3.59155 10.5852 3.59155V-0.408447ZM9.63758 -0.218597C9.33762 -0.0933713 9.0652 0.0901638 8.83626 0.32167L11.6804 3.1343C11.537 3.27934 11.3663 3.39427 11.1786 3.47264L9.63758 -0.218597ZM8.83626 0.32167C8.6075 0.552994 8.42691 0.827391 8.30494 1.12896L12.0131 2.62877C11.9367 2.81761 11.8237 2.98944 11.6804 3.1343L8.83626 0.32167ZM8.30494 1.12896C8.1829 1.4307 8.12202 1.75354 8.12564 2.07867L12.1254 2.03411C12.1277 2.23765 12.0896 2.43976 12.0131 2.62877L8.30494 1.12896ZM8.12564 2.03411C8.12202 2.35924 8.1829 2.68208 8.30494 2.98382L12.0131 1.48401C12.0896 1.67303 12.1277 1.87513 12.1254 2.07867L8.12564 2.03411ZM8.30494 2.98382C8.42691 3.28539 8.6075 3.55979 8.83626 3.79111L11.6804 0.978482C11.8237 1.12334 11.9367 1.29517 12.0131 1.48401L8.30494 2.98382ZM8.83626 3.79111C9.0652 4.02262 9.33762 4.20615 9.63758 4.33138L11.1786 0.640138C11.3663 0.718516 11.537 0.833438 11.6804 0.978482L8.83626 3.79111ZM9.63758 4.33138C9.93807 4.45683 10.2602 4.52123 10.5852 4.52123V0.521229C10.7886 0.521229 10.9903 0.561535 11.1786 0.640138L9.63758 4.33138ZM10.5852 4.52123C10.9102 4.52123 11.2323 4.45683 11.5328 4.33138L9.99179 0.640138C10.1801 0.561535 10.3818 0.521229 10.5852 0.521229V4.52123ZM11.5328 4.33138C11.8328 4.20615 12.1052 4.02262 12.3341 3.79111L9.48999 0.978482C9.63343 0.833438 9.80405 0.718516 9.99179 0.640138L11.5328 4.33138ZM12.3341 3.79111C12.5629 3.55977 12.7435 3.28537 12.8655 2.98382L9.15727 1.48401C9.23364 1.2952 9.34672 1.12336 9.48999 0.978482L12.3341 3.79111ZM12.8655 2.98382C12.9875 2.68211 13.0484 2.35927 13.0447 2.03411L9.045 2.07867C9.04273 1.8751 9.08084 1.673 9.15727 1.48401L12.8655 2.98382Z" fill="#0CFF42" mask="url(#path-2-inside-2_108_813)"/>
<path d="M5.83246 10.5941C5.79605 10.5513 5.76476 10.5051 5.73891 10.4562L6.08492 10.7878C5.98875 10.742 5.90252 10.6763 5.83246 10.5941Z" fill="#0CFF42" stroke="#0CFF42" stroke-width="2"/>
</svg>
